<?xml version="1.0" encoding="UTF-8"?>
<svg id="Layer_2" data-name="Layer 2" xmlns="http://www.w3.org/2000/svg" viewBox="0 0 276.57 768.09">
  <defs>
    <style>
      .cls-1 {
        fill: none;
      }

      .cls-1, .cls-2, .cls-3, .cls-4 {
        stroke: #faf8ed;
        stroke-miterlimit: 10;
        stroke-width: 6px;
      }

      .cls-2 {
        fill: #009444;
      }

      .cls-3 {
        fill: #758e63;
      }

      .cls-4 {
        fill: #d9e1cf;
      }
    </style>
  </defs>
  <g id="Layer_22" data-name="Layer 22">
    <path class="cls-4" d="m192.64,275.52c0-92.61-.04-179.91-.04-272.51h-43.04v269.2"/>
    <path class="cls-4" d="m157.05,516.56c0-.97-1.29-2.98-8.32-2.65-3.52.16-20.32-1.12-21.61,4.75-1.2,11.2-.74,23.68-1.93,34.89-.29,2.68,2.06,14.53,9.36,12.59,14.64-3.88,22.47-5.37,22.5-49.57Z"/>
  </g>
  <g id="Layer_21" data-name="Layer 21">
    <path class="cls-3" d="m84.97,298.24V3h44.41v277.21c-4.43-.33-14.95,2.21-22.21,5.3-9.11,3.88-18.4,10.17-22.21,12.74"/>
    <path class="cls-3" d="m129.38,307.45v457.64h-44.41v-420.63c6.37-8.29,12.27-14.78,16.92-18.65,6.36-5.29,14.44-8.32,27.49-12.93"/>
  </g>
  <g id="Layer_20" data-name="Layer 20">
    <path class="cls-4" d="m80.55,560.76c-39.2-1.55-69.2-39.82-76.3-87.81-5.34-36.14,6.11-104.74,40.03-149.97,24.64-32.85,52.35-47.47,85.1-54.34,26.64-6.21,52.34-.07,72.69,9.65,35.39,16.9,47.92,51.76,47.84,82.15-18.1-17.7-53.49-49.13-82.35-48.49-13.45.3-39.16,6.4-50.38,13.87-32.21,20.64-48.3,45.46-56.81,77.38-7.69,28.84-10.41,107.11,20.18,106.57"/>
    <path class="cls-1" d="m149.35,516.56c.02,2.76.06,5.04.06,6.74l-.07,37.52"/>
    <path class="cls-1" d="m207.88,473.73c-12.24,12.15-12.13,25.25-12.24,26.91-1.38,18.52-1.38,18.83-1.24,28.89l-.15,22.91"/>
    <path class="cls-1" d="m199.69,370.13c6.36,6.36,18.49,30.96,21.34,41.52,4.56,16.91,4.26,30.56-1.3,44.66"/>
    <path class="cls-2" d="m194.26,552.43l.15-22.91c-.15-10.06-.15-10.37,1.24-28.89.11-1.65,0-14.76,12.24-26.91,22.68-22.51,17.56-54.32,10.3-72.65-19.75-49.83-62.79-84.18-62.79-84.18,0,0,16.8-4.8,43.7,5.46,19.85,8.84,36.95,22.63,41.11,28.73,55.17,47.38,30.28,108.85,7.88,145.68-14.15,23.27-36.79,45.6-53.83,55.67Z"/>
    <path class="cls-4" d="m194.26,552.43l.15-22.91c-.15-10.06-.15-10.37,1.24-28.89.11-1.65,0-14.76,12.24-26.91,22.68-22.51,17.56-54.32,10.3-72.65-19.75-49.83-62.79-84.18-62.79-84.18,0,0,16.8-4.8,43.7,5.46,19.85,8.84,36.95,22.63,41.11,28.73,55.17,47.38,30.28,108.85,7.88,145.68-14.15,23.27-36.79,45.6-53.83,55.67Z"/>
    <path class="cls-4" d="m199.56,366.21c6.99,10.4,13.56,22.13,18.61,34.88,7.26,18.33,12.39,50.14-10.3,72.65-12.24,12.15-12.13,25.25-12.24,26.91-1.38,18.52-1.38,18.83-1.24,28.89l-.15,22.91-2.08,211.48-43.45.78.6-203.87v-44.26c-.04-8.18.15-20.52,2.39-34.16,3.48-21.18,16.82-37.95,30.6-61.43,8.02-13.67,15.8-36.55,17.61-55.03"/>
  </g>
</svg>