<?xml version="1.0" encoding="UTF-8"?>
<svg id="Layer_2" data-name="Layer 2" xmlns="http://www.w3.org/2000/svg" viewBox="0 0 196.59 768.09">
  <defs>
    <style>
      .cls-1 {
        fill: #758e63;
      }

      .cls-1, .cls-2 {
        stroke: #faf8ed;
        stroke-miterlimit: 10;
        stroke-width: 6px;
      }

      .cls-2 {
        fill: #d9e1cf;
      }
    </style>
  </defs>
  <g id="Layer_22" data-name="Layer 22">
    <path class="cls-1" d="m125.73,481.9c-13.73,8.54-35.27,3.76-45.45-11.03-8.19-11.9-9.25-30.61-.88-37.06,14.25-11,58.52,11.51,57.8,31.77-.31,8.87-9.17,14.89-11.47,16.33Z"/>
    <path class="cls-2" d="m81.08,310.19c13.73,8.54,35.27,3.76,45.45-11.03,8.19-11.9,9.25-30.61.88-37.06-14.25-11-58.52,11.51-57.8,31.77.31,8.87,9.17,14.89,11.47,16.33Z"/>
  </g>
  <g id="Layer_21" data-name="Layer 21">
    <path class="cls-2" d="m65.38,409.19c-14.34,15.65-18.38,45.02-18.38,72.25v283.65h44.41v-253.13s0-22.55,1.08-39.79c.76-12.14,1.03-26.42,9.51-36.09,10.73-12.22,39.6-25.72,44.16-55.01"/>
  </g>
  <g id="Layer_24" data-name="Layer 24">
    <path class="cls-1" d="m155.41,435.13c0-5.47-4.02-14.17-10.93-22.93-2.56-3.24-10.21-4.57-18.1-8.84-12.22-6.61-18.82-12.88-28.87-15.25-1.17,17.61,4.76,33.67,7.73,41.6,6.11,16.33,5.76,33.78,5.76,40.31.01,40.36,0,65.89,0,146.78,0,0,0,68.19,0,148.21,0,0,0,.03.02.05.01.01.03.02.05.02h44.27s.07-.03.07-.07v-329.89Z"/>
  </g>
  <g id="Layer_20" data-name="Layer 20">
    <path class="cls-1" d="m122.7,328.08c-2.92-15.85-22.16-30.08-28.16-44.43-3.14-7.51-3.14-18.05-3.14-26.96V3h-44.41v267.11c0,10.55,4.91,22.44,7.79,28.13,3.97,7.85,13.69,16.5,22.59,21.31,11.45,6.19,31.38,9.18,38.89,10.52"/>
    <line class="cls-2" x1="110.99" y1="326.48" x2="110.99" y2="397.18"/>
    <polyline class="cls-2" points="155.41 434.96 155.41 280.21 155.41 3 110.99 3 110.99 298.24 110.99 326.48"/>
    <path class="cls-2" d="m157.16,294.7c-4.27,7.82-10.79,13.84-19.67,19.71-20.8,13.75-51.14,16.73-81.64,33.46-31.94,17.52-43.26,40.15-42.83,67.58.51,32.15,17.95,50.29,33.97,55.09,1.83-16.29-6.95-34.45,9.05-52.73s38.15-22.57,71.6-29.71c33.9-7.24,53.98-32.9,60.52-48.77,9.12-22.16,6.2-48.07-4.67-61.03-7.23-8.62-15.05-15.72-25.5-15.72.08,13.09,3.44,24.3-.83,32.12"/>
    <path class="cls-1" d="m159.33,471.31c-1.78.91,1.79-35.21-14.2-53.49-15.82-18.08-36.12-19.95-67.8-32.85-32.97-13.43-49.01-25.17-60.45-37.97C-.26,327.83-.21,306.19,9.88,287.28c8.85-16.59,24.83-22.81,32.44-24.7-.16,26.18,3.6,40.09,21.38,51.83,20.8,13.75,51.14,16.73,81.64,33.46,31.94,17.52,43.26,40.15,42.83,67.58-.51,32.15-18.26,50.42-28.82,55.84Z"/>
  </g>
</svg>