<?xml version="1.0" encoding="UTF-8"?>
<svg id="Layer_2" data-name="Layer 2" xmlns="http://www.w3.org/2000/svg" viewBox="0 0 2139.31 889.04">
  <defs>
    <style>
      .cls-1 {
        fill: none;
        stroke: #758e63;
        stroke-width: 53px;
      }

      .cls-1, .cls-2, .cls-3, .cls-4 {
        stroke-miterlimit: 10;
      }

      .cls-2 {
        fill: #faf8ed;
        stroke-width: 10px;
      }

      .cls-2, .cls-3, .cls-4 {
        stroke: #faf8ed;
      }

      .cls-3 {
        fill: #758e63;
      }

      .cls-3, .cls-4 {
        stroke-width: 16px;
      }

      .cls-4 {
        fill: #b2c4a0;
      }

      .cls-5 {
        fill: #f8b572;
        stroke-width: 0px;
      }
    </style>
  </defs>
  <g id="Layer_24" data-name="Layer 24">
    <rect class="cls-2" x="5" y="5" width="2129.31" height="879.04"/>
    <rect class="cls-3" x="904.58" y="283.57" width="70" height="530" rx="30" ry="30"/>
  </g>
  <g id="Layer_20" data-name="Layer 20">
    <rect class="cls-3" x="1723.65" y="258.89" width="70" height="579.36" rx="30" ry="30"/>
    <path class="cls-1" d="m248.89,337.25c84.9,102.67,134.19,173.51,172.54,228.95,120.83,174.63,174.21,231.91,179.17,218.59,13.98-37.58,11.39-79.66,12.45-175.81,1.01-92.51-11.36-226.24,4.16-218.18,27.93,14.49,83.53,85.45,145.14,175.4,41.15,60.09,67.51,103.41,106.98,161.61,43.52,64.18,64.46,75.98,70.26,54.96"/>
  </g>
  <g id="Layer_25" data-name="Layer 25">
    <circle class="cls-5" cx="1344.2" cy="548.12" r="270.16" transform="translate(6.13 1111.04) rotate(-45)"/>
    <path class="cls-4" d="m1525.38,758.76c41.5-59.55,26.26-103.92-16.26-130.09-33.61-20.68-89.38-41.86-179.4-62.44-111.55-25.5-182.81-59.73-212.04-90.91-50.25-53.6-43.88-165.42,82.85-165.42-54.14,46.21-20.86,98.49-2.45,111.82,34.43,24.92,105.89,50.43,174.2,67.25,92.85,22.87,176.99,37.07,214.43,69.23,113.88,97.8-9.75,200.56-61.33,200.56Z"/>
    <path class="cls-3" d="m1159.68,753.32c-41.5-59.55-20.48-112.12,22.7-133.73,35.29-17.66,85.88-32.77,175.9-53.35,111.55-25.5,182.81-59.73,212.04-90.91,50.25-53.6,44.53-165.42-82.19-165.42,54.14,46.21,20.2,98.49,1.79,111.82-34.43,24.92-105.89,50.43-174.2,67.25-92.85,22.87-176.99,37.07-214.43,69.23-113.88,97.8,6.81,195.11,58.39,195.11Z"/>
    <path class="cls-4" d="m1374.2,197.5v120.83c0,14.3-13.43,25.89-30,25.89s-30-11.59-30-25.89v-120.83c0-14.3,13.43-25.89,30-25.89s30,11.59,30,25.89Z"/>
    <rect class="cls-4" x="-99.37" y="443.38" width="710" height="70" rx="35" ry="35" transform="translate(-222.75 734) rotate(-90)"/>
    <path class="cls-3" d="m183.34,312.21c1.39,10.09,5.12,17.73,10.23,23.3,7.14,7.79,18.05,9.39,18.98,9.4,475.4,7.13,1779.79,0,1779.79,0,18.06,0,32.73-15.3,33.08-34.32.35-19.62-15.18-35.68-33.73-35.68H259.65c-8.61,0-18.04,0-24.05,0-14.95,0-16.29-8.56-15.39-14.59.35-2.33-1.91-4.12-3.91-3.08-7.57,3.92-19.38,11.24-26.54,23.36-4.25,7.2-8.24,18.3-6.41,31.61Z"/>
    <rect class="cls-4" x="176.51" y="122.25" width="1456.93" height="70" rx="35" ry="35"/>
  </g>
</svg>