<?xml version="1.0" encoding="UTF-8"?>
<svg id="Layer_2" data-name="Layer 2" xmlns="http://www.w3.org/2000/svg" viewBox="0 0 889.04 889.04">
  <defs>
    <style>
      .cls-1 {
        fill: #faf8ed;
        stroke-width: 10px;
      }

      .cls-1, .cls-2, .cls-3 {
        stroke: #faf8ed;
        stroke-miterlimit: 10;
      }

      .cls-2 {
        fill: #758e63;
      }

      .cls-2, .cls-3 {
        stroke-width: 16px;
      }

      .cls-3 {
        fill: #b2c4a0;
      }

      .cls-4 {
        fill: #f8b572;
        stroke-width: 0px;
      }
    </style>
  </defs>
  <g id="Layer_21" data-name="Layer 21">
    <rect class="cls-1" x="5" y="5" width="879.04" height="879.04"/>
  </g>
  <g id="Layer_20" data-name="Layer 20">
    <circle class="cls-4" cx="444.52" cy="529.06" r="270.16" transform="translate(-243.91 469.28) rotate(-45)"/>
    <path class="cls-3" d="m625.69,739.7c41.5-59.55,26.26-103.92-16.26-130.09-33.61-20.68-89.38-41.86-179.4-62.44-111.55-25.5-182.81-59.73-212.04-90.91-50.25-53.6-43.88-165.42,82.85-165.42-54.14,46.21-20.86,98.49-2.45,111.82,34.43,24.92,105.89,50.43,174.2,67.25,92.85,22.87,176.99,37.07,214.43,69.23,113.88,97.8-9.75,200.56-61.33,200.56Z"/>
    <path class="cls-2" d="m259.99,734.26c-41.5-59.55-20.48-112.12,22.7-133.73,35.29-17.66,85.88-32.77,175.9-53.35,111.55-25.5,182.81-59.73,212.04-90.91,50.25-53.6,44.53-165.42-82.19-165.42,54.14,46.21,20.2,98.49,1.79,111.82-34.43,24.92-105.89,50.43-174.2,67.25-92.85,22.87-176.99,37.07-214.43,69.23-113.88,97.8,6.81,195.11,58.39,195.11Z"/>
    <path class="cls-3" d="m474.52,178.44v120.83c0,14.3-13.43,25.89-30,25.89s-30-11.59-30-25.89v-120.83c0-14.3,13.43-25.89,30-25.89s30,11.59,30,25.89Z"/>
  </g>
  <g id="Layer_25" data-name="Layer 25">
    <rect class="cls-3" x="163.04" y="94.19" width="562.95" height="80" rx="40" ry="40"/>
  </g>
</svg>