<svg width="765" height="812" viewBox="0 0 765 812" fill="none" xmlns="http://www.w3.org/2000/svg">
<path d="M573.096 690.901C678.6 585.397 678.6 414.341 573.096 308.837C467.592 203.333 296.536 203.333 191.032 308.837C85.5279 414.341 85.5279 585.397 191.032 690.901C296.536 796.405 467.592 796.405 573.096 690.901Z" fill="#F8B572"/>
<path d="M563.239 710.51C604.739 650.96 589.499 606.59 546.979 580.42C513.369 559.74 457.599 538.56 367.579 517.98C256.029 492.48 184.769 458.25 155.539 427.07C105.289 373.47 111.659 261.65 238.389 261.65C184.249 307.86 217.529 360.14 235.939 373.47C270.369 398.39 341.829 423.9 410.139 440.72C502.989 463.59 587.129 477.79 624.569 509.95C738.449 607.75 614.819 710.51 563.239 710.51Z" fill="#B2C4A0" stroke="#FAF8ED" stroke-width="16" stroke-miterlimit="10"/>
<path d="M197.539 705.07C156.039 645.52 177.059 592.95 220.239 571.34C255.529 553.68 306.119 538.57 396.139 517.99C507.689 492.49 578.949 458.26 608.179 427.08C658.429 373.48 652.709 261.66 525.989 261.66C580.129 307.87 546.189 360.15 527.779 373.48C493.349 398.4 421.889 423.91 353.579 440.73C260.729 463.6 176.589 477.8 139.149 509.96C25.2689 607.76 145.959 705.07 197.539 705.07Z" fill="#758E63" stroke="#FAF8ED" stroke-width="16" stroke-miterlimit="10"/>
<path d="M412.069 149.25V270.08C412.069 284.38 398.639 295.97 382.069 295.97C365.499 295.97 352.069 284.38 352.069 270.08V149.25C352.069 134.95 365.499 123.36 382.069 123.36C398.639 123.36 412.069 134.95 412.069 149.25Z" fill="#B2C4A0" stroke="#FAF8ED" stroke-width="16" stroke-miterlimit="10"/>
<path d="M628.539 70H135.589C116.259 70 100.589 85.67 100.589 105C100.589 124.33 116.259 140 135.589 140H628.539C647.869 140 663.539 124.33 663.539 105C663.539 85.67 647.869 70 628.539 70Z" fill="#B2C4A0" stroke="#FAF8ED" stroke-width="16" stroke-miterlimit="10"/>
<path d="M664.249 226.35H99.8889C80.559 226.35 64.8889 242.02 64.8889 261.35C64.8889 280.68 80.559 296.35 99.8889 296.35H664.249C683.579 296.35 699.249 280.68 699.249 261.35C699.249 242.02 683.579 226.35 664.249 226.35Z" fill="#758E63" stroke="#FAF8ED" stroke-width="16" stroke-miterlimit="10"/>
</svg>
