<svg width="759" height="784" viewBox="0 0 759 784" fill="none" xmlns="http://www.w3.org/2000/svg">
<rect width="759" height="759" rx="100" fill="#FAF8ED"/>
<path d="M545.25 617.908C636.791 526.299 636.791 377.771 545.25 286.162C453.709 194.553 305.291 194.553 213.75 286.162C122.209 377.771 122.209 526.299 213.75 617.908C305.291 709.517 453.709 709.517 545.25 617.908Z" fill="#F8B572"/>
<path d="M536.698 634.935C572.705 583.227 559.482 544.701 522.589 521.978C493.428 504.021 445.038 485.631 366.932 467.761C270.145 445.619 208.316 415.898 182.954 388.824C139.355 342.283 144.882 245.19 254.84 245.19C207.865 285.314 236.74 330.709 252.714 342.283C282.587 363.921 344.59 386.071 403.859 400.676C484.421 420.534 557.426 432.864 589.911 460.789C688.72 545.708 581.451 634.935 536.698 634.935Z" fill="#B2C4A0" stroke="#FAF8ED" stroke-width="16" stroke-miterlimit="10"/>
<path d="M219.396 630.211C183.388 578.504 201.626 532.857 239.092 514.094C269.711 498.759 313.606 485.639 391.712 467.77C488.499 445.628 550.328 415.906 575.69 388.833C619.29 342.292 614.327 245.199 504.377 245.199C551.352 285.323 521.904 330.717 505.93 342.292C476.057 363.93 414.054 386.08 354.785 400.685C274.223 420.543 201.218 432.873 168.733 460.797C69.9247 545.717 174.642 630.211 219.396 630.211Z" fill="#758E63" stroke="#FAF8ED" stroke-width="16" stroke-miterlimit="10"/>
<path d="M405.534 147.594V252.51C405.534 264.927 393.881 274.99 379.504 274.99C365.127 274.99 353.475 264.927 353.475 252.51V147.594C353.475 135.177 365.127 125.113 379.504 125.113C393.881 125.113 405.534 135.177 405.534 147.594Z" fill="#B2C4A0" stroke="#FAF8ED" stroke-width="16" stroke-miterlimit="10"/>
<path d="M593.355 78.7808H165.645C148.873 78.7808 135.277 92.387 135.277 109.171C135.277 125.955 148.873 139.562 165.645 139.562H593.355C610.127 139.562 623.723 125.955 623.723 109.171C623.723 92.387 610.127 78.7808 593.355 78.7808Z" fill="#B2C4A0" stroke="#FAF8ED" stroke-width="16" stroke-miterlimit="10"/>
<path d="M624.34 214.539H134.669C117.897 214.539 104.301 228.145 104.301 244.93C104.301 261.714 117.897 275.32 134.669 275.32H624.34C641.111 275.32 654.707 261.714 654.707 244.93C654.707 228.145 641.111 214.539 624.34 214.539Z" fill="#758E63" stroke="#FAF8ED" stroke-width="16" stroke-miterlimit="10"/>
</svg>
