<svg width="2388" height="1046" viewBox="0 0 2388 1046" fill="none" xmlns="http://www.w3.org/2000/svg">
<path d="M994.286 217.424H981.486C960.279 217.424 943.086 234.616 943.086 255.824V857.424C943.086 878.632 960.279 895.824 981.486 895.824H994.286C1015.49 895.824 1032.69 878.632 1032.69 857.424V255.824C1032.69 234.616 1015.49 217.424 994.286 217.424Z" fill="#758E63" stroke="#FAF8ED" stroke-width="20.48" stroke-miterlimit="10"/>
<path d="M2042.7 221.904H2029.9C2008.69 221.904 1991.5 239.096 1991.5 260.304V868.304C1991.5 889.512 2008.69 906.704 2029.9 906.704H2042.7C2063.9 906.704 2081.1 889.512 2081.1 868.304V260.304C2081.1 239.096 2063.9 221.904 2042.7 221.904Z" fill="#758E63" stroke="#FAF8ED" stroke-width="20.48" stroke-miterlimit="10"/>
<path d="M103.803 286.134C212.475 417.552 275.566 508.227 324.654 579.19C479.317 802.717 547.643 876.035 553.992 858.985C571.886 810.883 568.571 757.021 569.928 633.949C571.221 515.536 555.387 344.361 575.253 354.678C611.003 373.225 682.171 464.054 761.032 579.19C813.704 656.105 847.445 711.555 897.966 786.051C953.672 868.201 980.475 883.305 987.899 856.4" stroke="#758E63" stroke-width="67.84" stroke-miterlimit="10"/>
<path d="M1750.32 800.574C1885.37 665.529 1885.37 446.577 1750.32 311.532C1615.28 176.487 1396.33 176.487 1261.28 311.532C1126.23 446.577 1126.23 665.528 1261.28 800.574C1396.33 935.619 1615.28 935.619 1750.32 800.574Z" fill="#F8B572"/>
<path d="M1737.71 825.667C1790.83 749.443 1771.32 692.65 1716.9 659.152C1673.88 632.682 1602.49 605.571 1487.27 579.229C1344.48 546.589 1253.27 502.774 1215.85 462.864C1151.53 394.256 1159.69 251.126 1321.9 251.126C1252.6 310.275 1295.2 377.194 1318.77 394.256C1362.84 426.154 1454.31 458.806 1541.74 480.336C1660.59 509.61 1768.29 527.786 1816.21 568.95C1961.98 694.134 1803.73 825.667 1737.71 825.667Z" fill="#B2C4A0" stroke="#FAF8ED" stroke-width="20.48" stroke-miterlimit="10"/>
<path d="M1269.61 818.691C1216.49 742.467 1243.4 675.178 1298.67 647.517C1343.84 624.912 1408.6 605.571 1523.82 579.229C1666.61 546.589 1757.82 502.775 1795.23 462.864C1859.55 394.256 1852.23 251.126 1690.03 251.126C1759.33 310.275 1715.89 377.194 1692.32 394.256C1648.25 426.154 1556.78 458.806 1469.35 480.336C1350.5 509.61 1242.8 527.786 1194.88 568.951C1049.11 694.135 1203.59 818.691 1269.61 818.691Z" fill="#758E63" stroke="#FAF8ED" stroke-width="20.48" stroke-miterlimit="10"/>
<path d="M1544.2 107.254V261.917C1544.2 280.221 1527.01 295.056 1505.8 295.056C1484.59 295.056 1467.4 280.221 1467.4 261.917V107.254C1467.4 88.9504 1484.59 74.1152 1505.8 74.1152C1527.01 74.1152 1544.2 88.9504 1544.2 107.254Z" fill="#B2C4A0" stroke="#FAF8ED" stroke-width="20.48" stroke-miterlimit="10"/>
<path d="M67.6174 57.168L67.6174 876.368C67.6174 901.11 87.6751 921.168 112.417 921.168C137.16 921.168 157.217 901.11 157.217 876.368L157.217 57.168C157.217 32.4257 137.16 12.368 112.417 12.368C87.6751 12.368 67.6174 32.4257 67.6174 57.168Z" fill="#B2C4A0" stroke="#FAF8ED" stroke-width="20.48" stroke-miterlimit="10"/>
<path d="M19.8991 254.083C21.6783 266.998 26.4527 276.777 32.9935 283.907C42.1327 293.878 56.0975 295.926 57.2879 295.939C665.8 305.065 2335.42 295.939 2335.42 295.939C2358.54 295.939 2377.31 276.355 2377.76 252.009C2378.21 226.896 2358.33 206.339 2334.59 206.339H117.576C106.555 206.339 94.4847 206.339 86.7919 206.339C67.6559 206.339 65.9407 195.382 67.0927 187.664C67.5407 184.681 64.6479 182.39 62.0879 183.721C52.3983 188.739 37.2815 198.109 28.1167 213.622C22.6767 222.838 17.5695 237.046 19.9119 254.083H19.8991Z" fill="#758E63" stroke="#FAF8ED" stroke-width="20.48" stroke-miterlimit="10"/>
<path d="M1831.23 10.9341H55.9567C31.2144 10.9341 11.1567 30.9917 11.1567 55.7341C11.1567 80.4764 31.2144 100.534 55.9567 100.534H1831.23C1855.97 100.534 1876.03 80.4764 1876.03 55.7341C1876.03 30.9917 1855.97 10.9341 1831.23 10.9341Z" fill="#B2C4A0" stroke="#FAF8ED" stroke-width="20.48" stroke-miterlimit="10"/>
</svg>
